HIERARCHY
ROOT SimulationBone
{
	OFFSET 0.000000 0.000000 0.000000
	CHANNELS 6 Xposition Yposition Zposition Zrotation Yrotation Xrotation 
	JOINT Hips
	{
		OFFSET 0.000000 0.000000 0.000000
		CHANNELS 6 Xposition Yposition Zposition Zrotation Yrotation Xrotation 
		JOINT RightUpLeg
		{
			OFFSET 0.103459 1.857814 10.548504
			CHANNELS 3 Zrotation Yrotation Xrotation
			JOINT RightLeg
			{
				OFFSET 43.500000 -0.000004 -0.000011
				CHANNELS 3 Zrotation Yrotation Xrotation
				JOINT RightFoot
				{
					OFFSET 42.372196 -0.000004 0.000004
					CHANNELS 3 Zrotation Yrotation Xrotation
					JOINT RightToe
					{
						OFFSET 17.300003 0.000001 -0.000008
						CHANNELS 3 Zrotation Yrotation Xrotation
						End Site
						{
							OFFSET 0.000000 0.000000 0.000000
						}
					}
				}
			}
		}
		JOINT LeftUpLeg
		{
			OFFSET 0.103457 1.857841 -10.548511
			CHANNELS 3 Zrotation Yrotation Xrotation
			JOINT LeftLeg
			{
				OFFSET 43.500042 -0.000038 0.000000
				CHANNELS 3 Zrotation Yrotation Xrotation
				JOINT LeftFoot
				{
					OFFSET 42.372269 -0.000023 0.000011
					CHANNELS 3 Zrotation Yrotation Xrotation
					JOINT LeftToe
					{
						OFFSET 17.300003 -0.000001 0.000023
						CHANNELS 3 Zrotation Yrotation Xrotation
						End Site
						{
							OFFSET 0.000000 0.000000 0.000000
						}
					}
				}
			}
		}
		JOINT Spine
		{
			OFFSET 6.901971 -2.603744 -0.000012
			CHANNELS 3 Zrotation Yrotation Xrotation
			JOINT Spine1
			{
				OFFSET 12.588097 -0.000002 0.000018
				CHANNELS 3 Zrotation Yrotation Xrotation
				JOINT Spine2
				{
					OFFSET 12.343208 0.000014 -0.000019
					CHANNELS 3 Zrotation Yrotation Xrotation
					JOINT Neck
					{
						OFFSET 25.832897 0.000008 0.000016
						CHANNELS 3 Zrotation Yrotation Xrotation
						JOINT Head
						{
							OFFSET 11.766600 -0.000006 0.000008
							CHANNELS 3 Zrotation Yrotation Xrotation
							End Site
							{
								OFFSET 0.000000 0.000000 0.000000
							}
						}
					}
					JOINT RightShoulder
					{
						OFFSET 19.745909 -1.480356 6.000120
						CHANNELS 3 Zrotation Yrotation Xrotation
						JOINT RightArm
						{
							OFFSET 11.284115 -0.000000 -0.000025
							CHANNELS 3 Zrotation Yrotation Xrotation
							JOINT RightForeArm
							{
								OFFSET 33.000057 0.000003 0.000029
								CHANNELS 3 Zrotation Yrotation Xrotation
								JOINT RightHand
								{
									OFFSET 25.200006 0.000029 0.000011
									CHANNELS 3 Zrotation Yrotation Xrotation
									End Site
									{
										OFFSET 0.000000 0.000000 0.000000
									}
								}
							}
						}
					}
					JOINT LeftShoulder
					{
						OFFSET 19.746088 -1.480379 -6.000049
						CHANNELS 3 Zrotation Yrotation Xrotation
						JOINT LeftArm
						{
							OFFSET 11.284159 -0.000019 -0.000011
							CHANNELS 3 Zrotation Yrotation Xrotation
							JOINT LeftForeArm
							{
								OFFSET 33.000076 -0.000001 0.000001
								CHANNELS 3 Zrotation Yrotation Xrotation
								JOINT LeftHand
								{
									OFFSET 25.199781 0.000139 0.000430
									CHANNELS 3 Zrotation Yrotation Xrotation
									End Site
									{
										OFFSET 0.000000 0.000000 0.000000
									}
								}
							}
						}
					}
				}
			}
		}
	}
}
MOTION
Frames: 9
Frame Time: 0.016667
293.277929 0.000000 -403.561474 180.000000 86.975381 180.000000 1.729287 91.892906 -0.601920 93.982303 -0.409142 179.827027 -178.192423 -0.923491 -177.642360 -15.428696 -1.272975 -0.137499 84.163161 -0.011814 -0.735653 21.454557 0.003102 0.000018 -174.651612 2.438707 -179.047781 -9.638385 2.635303 3.696502 83.779769 -2.278761 1.648131 21.454553 -0.003088 -0.000000 5.934035 0.421410 -0.507013 1.851541 0.850645 -1.007488 1.533456 0.844401 -1.012606 15.882662 -6.558309 1.849915 -15.186690 1.980739 1.147725 -178.866399 -70.832324 -2.506808 -8.212240 58.005345 33.976826 -25.462365 -17.619315 1.341312 5.399113 4.752304 12.795501 -146.218283 76.316280 35.976840 -21.256017 -63.103296 -29.647484 -29.280275 17.366446 -1.367284 7.861342 8.891358 -0.198521 
293.360659 0.000000 -403.541375 180.000000 86.589367 180.000000 1.793537 91.865130 -0.622501 93.987702 -0.442643 179.719506 -178.385787 -0.859487 -177.619800 -15.790146 -1.140577 0.018216 84.272689 -0.125186 -0.752731 21.454554 0.003099 0.000018 -174.660440 2.445705 -178.577673 -9.818790 2.600526 3.588186 83.943799 -2.209932 1.620264 21.454550 -0.003112 -0.000003 5.932357 0.410274 -0.524222 1.848117 0.828657 -1.042071 1.530044 0.822213 -1.047059 15.855785 -6.586045 1.892548 -15.284049 1.957337 1.197023 -179.231261 -70.752802 -2.129494 -8.342989 58.210753 34.361667 -24.982520 -17.410019 1.319750 5.723614 6.922375 13.740019 -147.828851 76.296139 34.334006 -22.979389 -63.490358 -29.144142 -26.371802 16.293854 -1.247140 8.077393 6.921608 2.354680 
293.431490 0.000000 -403.537167 180.000000 86.165891 180.000000 1.842764 91.839767 -0.628186 93.985054 -0.481601 179.609591 -178.600527 -0.770983 -177.791204 -16.181101 -0.932024 0.265010 84.377185 -0.299175 -0.749809 21.454555 0.003105 0.000018 -174.659863 2.441692 -178.146606 -9.970615 2.549253 3.529631 84.100794 -2.171491 1.610044 21.454551 -0.003110 -0.000002 5.929025 0.396115 -0.529689 1.841531 0.800392 -1.053233 1.523468 0.793880 -1.058059 15.804358 -6.659913 1.916832 -15.321330 1.982758 1.208504 -179.595398 -70.697707 -1.753221 -8.218303 58.411386 34.651120 -24.881188 -17.238412 1.307819 6.155931 8.231183 14.254688 -149.319818 76.239099 32.813882 -24.085409 -63.729283 -28.987831 -24.107166 15.274873 -1.145921 8.384172 5.040401 3.803496 
293.491030 0.000000 -403.547682 180.000000 85.706033 180.000000 1.875402 91.810831 -0.623694 93.970828 -0.517134 179.518038 -178.909729 -0.668814 -178.039528 -16.718315 -0.681038 0.553349 84.501081 -0.498082 -0.721946 21.454556 0.003113 0.000017 -174.661092 2.424465 -177.718925 -10.113831 2.488709 3.508251 84.261550 -2.154989 1.617061 21.454552 -0.003096 0.000000 5.924532 0.382445 -0.527910 1.832686 0.772967 -1.049910 1.514628 0.766470 -1.054577 15.717027 -6.774796 1.922879 -15.305868 2.038716 1.187734 -179.943069 -70.657446 -1.394115 -7.953374 58.586529 34.899322 -25.010800 -17.120897 1.302668 6.548580 8.655677 14.441684 -150.626945 76.174185 31.481143 -24.617349 -63.892657 -29.219703 -22.420868 14.404866 -1.066343 8.640448 3.285879 4.250124 
293.539888 0.000000 -403.571755 180.000000 85.210795 180.000000 1.889994 91.772339 -0.613850 93.941269 -0.540421 179.465525 -179.386094 -0.563505 -178.247939 -17.519201 -0.420797 0.833103 84.668772 -0.686269 -0.664226 21.454558 0.003117 0.000017 -174.675381 2.391997 -177.258968 -10.268416 2.426005 3.511456 84.436840 -2.151977 1.640962 21.454553 -0.003084 0.000002 5.919372 0.372776 -0.523380 1.822492 0.753498 -1.041041 1.504433 0.747051 -1.045589 15.582472 -6.925604 1.910900 -15.245042 2.107015 1.140360 179.742083 -70.622562 -1.068918 -7.664712 58.716068 35.158743 -25.224236 -17.073753 1.302882 6.771708 8.172522 14.402461 -151.698800 76.131374 30.387663 -24.630500 -64.048280 -29.868078 -21.248326 13.779695 -1.011130 8.693621 1.698472 3.803255 
293.578672 0.000000 -403.608218 180.000000 84.681103 180.000000 1.882019 91.719683 -0.601673 93.887319 -0.543986 179.469088 179.909663 -0.462442 -178.368063 -18.672563 -0.178005 1.060746 84.892956 -0.832802 -0.572823 21.454558 0.003113 0.000017 -174.723747 2.342187 -176.733933 -10.457952 2.366484 3.526548 84.636634 -2.154016 1.681152 21.454552 -0.003082 0.000002 5.913151 0.369901 -0.520026 1.810101 0.747641 -1.034439 1.492035 0.741237 -1.038939 15.395823 -7.106054 1.882186 -15.157155 2.172341 1.072325 179.495911 -70.585453 -0.814471 -7.455455 58.784139 35.459826 -25.412526 -17.104355 1.307780 6.751960 6.835815 14.206336 -152.498214 76.135862 29.571031 -24.160485 -64.241288 -30.924047 -20.554356 13.454361 -0.982280 8.432057 0.328552 2.616405 
293.607991 0.000000 -403.655905 180.000000 84.117822 180.000000 1.834172 91.653763 -0.582878 93.779427 -0.525745 179.531432 178.962732 -0.367006 -178.624774 -20.150016 0.045825 1.220734 85.139509 -0.925118 -0.448234 21.454558 0.003107 0.000017 -174.866039 2.272517 -176.122425 -10.720494 2.308601 3.540409 84.867729 -2.152666 1.735947 21.454553 -0.003089 0.000001 5.901912 0.373748 -0.519494 1.787596 0.755230 -1.033406 1.469521 0.748838 -1.037941 15.177963 -7.304927 1.841896 -15.104246 2.230666 0.990685 179.429903 -70.545701 -0.745668 -7.370858 58.791022 35.750305 -25.618252 -17.184607 1.316333 6.603273 5.018660 13.767208 -153.012805 76.191985 29.043974 -23.160293 -64.440224 -32.235961 -20.416018 13.318941 -0.971459 7.944020 -0.707971 0.999841 
293.628453 0.000000 -403.713649 180.000000 83.521762 180.000000 1.735582 91.571307 -0.551526 93.603010 -0.469561 179.651637 177.777858 -0.307407 -179.257607 -21.917981 0.236289 1.283995 85.392518 -0.940835 -0.285623 21.454557 0.003105 0.000018 -175.141930 2.166872 -175.423072 -11.090601 2.253915 3.548905 85.139839 -2.146011 1.801954 21.454554 -0.003098 -0.000001 5.884666 0.386947 -0.521928 1.752980 0.781506 -1.038185 1.434901 0.775090 -1.042883 14.946063 -7.506276 1.798078 -15.137849 2.276369 0.906163 179.605797 -70.508133 -0.926250 -7.421583 58.744220 35.965023 -25.911917 -17.286218 1.327726 6.463269 3.136336 13.006798 -153.223671 76.289469 28.826099 -21.626521 -64.587205 -33.704043 -20.877563 13.249106 -0.972600 7.349298 -1.301741 -0.686615 
293.640666 0.000000 -403.780284 180.000000 82.893686 180.000000 1.614494 91.446838 -0.499461 93.423253 -0.295771 179.828863 176.396930 -0.408005 179.710583 -24.039833 0.303412 1.140175 85.755756 -0.800802 -0.054896 21.454558 0.003106 0.000018 -175.471794 1.949211 -174.703644 -11.574486 2.223705 3.583840 85.477453 -2.158182 1.869754 21.454555 -0.003103 -0.000002 5.875865 0.425817 -0.523731 1.735028 0.859182 -1.041287 1.416944 0.852751 -1.046458 14.676690 -7.680296 1.767111 -15.223749 2.286868 0.843481 179.815207 -70.491955 -1.141814 -7.539480 58.663058 36.067902 -26.324308 -17.415627 1.342805 6.354722 1.456451 12.054512 -153.079181 76.382513 28.971273 -19.797922 -64.597311 -35.591653 -21.735170 13.229251 -0.982329 6.765572 -1.447134 -2.008411 
